<svg width="127" height="71" viewBox="0 0 127 71" fill="none" xmlns="http://www.w3.org/2000/svg">
<g clip-path="url(#clip0_26_12)">
<path d="M79.2009 37.9206H77.0825V31.8531H77.5644V37.4329H79.2009V37.9206Z" fill="#00B4B7"/>
<path d="M80.8062 37.4294H83.0563V37.9206H80.3243V34.2773H79.5962L79.884 33.7861H80.3208V31.8531H83.0528V32.3443H80.8027V33.7826H82.2311V34.2773H80.8027L80.8062 37.4294Z" fill="#00B4B7"/>
<path d="M104.833 33.5035C103.77 34.9879 102.38 36.1981 100.776 37.0372C99.1194 37.9196 97.2751 38.3735 95.4058 38.3588C93.3562 38.3796 91.3399 37.8298 89.5743 36.7686C87.8312 35.7298 86.3822 34.2481 85.3688 32.4681C84.3293 30.6602 83.7913 28.5984 83.8121 26.5031C83.8105 24.9461 84.11 23.4041 84.6936 21.9652C85.2772 20.5263 86.1334 19.2188 87.2132 18.1175C88.2821 17.0231 89.5553 16.158 90.9576 15.5732C92.526 14.9257 94.2118 14.6267 95.9026 14.6962C97.5934 14.7656 99.2502 15.202 100.762 15.9761C102.375 16.8097 103.762 18.034 104.801 19.5416L103.356 20.5806C102.771 19.7639 102.062 19.048 101.255 18.4603C100.421 17.8356 99.4954 17.3501 98.5122 17.0221C97.504 16.6928 96.4507 16.5293 95.3919 16.5379C93.674 16.5282 91.9845 16.9844 90.4965 17.8596C88.9985 18.7272 87.7605 19.9939 86.9151 21.5241C85.6132 23.8193 85.2591 26.5477 85.9307 29.109C86.6023 31.6703 88.2447 33.8548 90.4965 35.182C91.9214 36.0175 93.5287 36.4766 95.1722 36.5173C96.8156 36.558 98.4429 36.1792 99.906 35.4152C101.262 34.7085 102.438 33.6884 103.338 32.4363L104.833 33.5035Z" fill="#00B4B7"/>
<path d="M107.145 35.3374V37.91H106.424V35.3374H105.491L105.925 34.6307H106.424V30.998C106.423 30.5839 106.532 30.1774 106.739 29.8213C106.945 29.4608 107.239 29.1612 107.592 28.952C107.943 28.7416 108.342 28.6306 108.748 28.6306C109.155 28.6306 109.554 28.7416 109.905 28.952C110.258 29.1612 110.552 29.4608 110.758 29.8213C110.965 30.1774 111.074 30.5839 111.073 30.998V37.9206H110.352V35.3374H107.145ZM107.145 34.6024H110.352V30.998C110.357 30.6966 110.278 30.3999 110.123 30.1428C109.975 29.899 109.766 29.7001 109.516 29.5668C109.278 29.4344 109.011 29.3652 108.74 29.3654C108.524 29.3581 108.309 29.3985 108.109 29.4839C107.91 29.5693 107.731 29.6976 107.585 29.8601C107.297 30.1658 107.136 30.5739 107.138 30.998L107.145 34.6024Z" fill="#00B4B7"/>
<path d="M113.476 37.9206H112.755V32.4468H111.666L112.099 31.6977H112.755V28.8177H116.853V29.5527H113.476V31.6942H115.618V32.4433H113.476V37.9206Z" fill="#00B4B7"/>
<path d="M119.259 37.1856H122.636V37.9206H118.531V32.4469H117.438L117.872 31.7118H118.531V28.8177H122.629V29.5527H119.259V31.7083H121.401V32.4433H119.259V37.1856ZM118.798 28.1074L121.859 26.1921L122.254 26.9413L118.971 28.4149L118.798 28.1074Z" fill="#00B4B7"/>
<path d="M72.2808 44.0835H74.0143C74.6167 44.0772 75.2139 44.1975 75.7687 44.4369C76.8333 44.8977 77.681 45.7617 78.1331 46.8469C78.4228 47.5401 78.5391 48.2958 78.4718 49.0461C78.4045 49.7965 78.1557 50.5181 77.7475 51.1463C77.3393 51.7746 76.7846 52.2898 76.1331 52.6458C75.4816 53.0019 74.7536 53.1876 74.0143 53.1864H72.9222V44.8185H71.844L72.2808 44.0835ZM74.0143 52.4514C74.6323 52.452 75.2407 52.2964 75.7852 51.9986C76.3297 51.7008 76.7932 51.27 77.1344 50.7448C77.4755 50.2196 77.6835 49.6164 77.7398 48.9892C77.7961 48.362 77.699 47.7303 77.4571 47.1508C77.2764 46.6975 77.0085 46.2857 76.6691 45.9397C76.3296 45.5938 75.9256 45.3207 75.4809 45.1365C75.0179 44.9325 74.5187 44.8278 74.0143 44.8291H73.6468V52.462L74.0143 52.4514Z" fill="#00B4B7"/>
<path d="M80.6917 52.4514H84.0686V53.1864H79.9671V47.7056H78.875L79.3084 46.9706H79.9671V44.0764H84.0651V44.8114H80.6882V46.967H82.8205V47.7056H80.6778L80.6917 52.4514Z" fill="#00B4B7"/>
<path d="M85.3548 51.0732C85.4507 51.5118 85.6965 51.9013 86.0482 52.1722C86.3844 52.4435 86.8016 52.5894 87.2304 52.5856C87.4833 52.5921 87.7347 52.5448 87.9687 52.4469C88.2026 52.3489 88.4141 52.2024 88.5895 52.0167C88.8293 51.7769 89.0022 51.4764 89.0905 51.146C89.1787 50.8156 89.1791 50.4672 89.0915 50.1366C89.004 49.806 88.8317 49.5051 88.5924 49.2648C88.3531 49.0245 88.0553 48.8535 87.7297 48.7692L86.6896 48.5006C86.2035 48.3761 85.774 48.0855 85.4727 47.6773C85.166 47.2729 85.0023 46.7748 85.0081 46.2638C85.0067 45.959 85.0646 45.6569 85.1784 45.375C85.2922 45.0931 85.4597 44.837 85.6712 44.6215C85.8826 44.4059 86.1339 44.2352 86.4105 44.1192C86.687 44.0032 86.9834 43.9442 87.2824 43.9456C87.6823 43.9445 88.0752 44.0531 88.4196 44.2601C88.7651 44.4601 89.0532 44.7489 89.2552 45.0976L88.6242 45.451C88.4961 45.2049 88.3018 45.0011 88.0642 44.8634C87.8266 44.7257 87.5554 44.6599 87.2824 44.6736C87.0773 44.671 86.8739 44.7121 86.6852 44.7942C86.4966 44.8764 86.3268 44.9978 86.1869 45.1506C85.9202 45.4222 85.7603 45.7838 85.7373 46.1672C85.7143 46.5507 85.8298 46.9294 86.0621 47.232C86.2633 47.5051 86.5512 47.6987 86.8768 47.7798L87.9169 48.0483C88.4715 48.1957 88.9606 48.5309 89.3037 48.9989C89.6613 49.4646 89.8532 50.0402 89.848 50.6315C89.8553 50.989 89.789 51.3442 89.6534 51.674C89.5179 52.0039 89.3161 52.3012 89.061 52.5468C88.8198 52.7969 88.5314 52.9947 88.2133 53.1283C87.8951 53.2619 87.5537 53.3285 87.2096 53.3242C86.6217 53.3299 86.0503 53.1261 85.594 52.7482C85.1295 52.3778 84.801 51.8587 84.6614 51.2746L85.3548 51.0732Z" fill="#00B4B7"/>
<path d="M103.643 51.4195C103.218 52.0132 102.662 52.4973 102.021 52.833C101.358 53.1867 100.62 53.3688 99.8712 53.3631C99.0512 53.3714 98.2445 53.1515 97.538 52.727C96.841 52.3111 96.2616 51.7182 95.8565 51.0061C95.4403 50.2833 95.2246 49.4588 95.2324 48.6208C95.2317 47.9982 95.3513 47.3816 95.5845 46.8062C95.8177 46.2308 96.1599 45.7079 96.5915 45.2673C97.0191 44.8296 97.5283 44.4836 98.0892 44.2496C98.7166 43.991 99.3908 43.8718 100.067 43.8998C100.743 43.9279 101.406 44.1025 102.01 44.4121C102.654 44.7421 103.209 45.2273 103.626 45.8256L103.047 46.2391C102.813 45.9111 102.528 45.6235 102.205 45.3874C101.872 45.1374 101.502 44.943 101.109 44.8114C100.708 44.6802 100.289 44.6146 99.8678 44.6171C99.1802 44.6134 98.5041 44.7964 97.9089 45.1471C97.3104 45.4952 96.8156 46.0019 96.477 46.6137C95.9566 47.5318 95.8151 48.6229 96.0836 49.6473C96.352 50.6717 97.0086 51.5456 97.9089 52.0768C98.479 52.4114 99.122 52.5953 99.7796 52.612C100.437 52.6287 101.088 52.4775 101.674 52.1722C102.222 51.8915 102.697 51.4836 103.061 50.9814L103.643 51.4195Z" fill="#00B4B7"/>
<path d="M109.711 53.1864H108.989V47.7056H105.838V53.1829H105.113V47.7056H104.021L104.455 46.9564H105.11V44.0764H105.831V46.9564H108.983V44.0764H109.704L109.711 53.1864Z" fill="#00B4B7"/>
<path d="M110.501 53.1864V44.0835H111.222V53.19L110.501 53.1864Z" fill="#00B4B7"/>
<path d="M113.628 52.4514H117.005V53.1864H112.904V47.7056H111.812L112.245 46.9706H112.9V44.0764H117.005V44.8114H113.628V46.967H115.757V47.7056H113.614L113.628 52.4514Z" fill="#00B4B7"/>
<path d="M118.531 46.7055V53.1864H117.81V43.9068L121.516 50.575V44.0835H122.237V53.3596L118.531 46.7055Z" fill="#00B4B7"/>
<path d="M123.506 51.0732C123.602 51.5118 123.847 51.9013 124.199 52.1722C124.535 52.4435 124.953 52.5894 125.381 52.5856C125.634 52.5921 125.886 52.5448 126.12 52.4469C126.354 52.3489 126.565 52.2024 126.74 52.0167C126.98 51.7769 127.153 51.4764 127.241 51.146C127.33 50.8156 127.33 50.4672 127.243 50.1366C127.155 49.806 126.983 49.5051 126.743 49.2648C126.504 49.0245 126.206 48.8535 125.881 48.7692L124.841 48.5006C124.354 48.3761 123.925 48.0855 123.624 47.6773C123.317 47.2729 123.153 46.7748 123.159 46.2638C123.158 45.959 123.216 45.6569 123.329 45.375C123.443 45.0931 123.611 44.837 123.822 44.6215C124.034 44.4059 124.285 44.2352 124.561 44.1192C124.838 44.0032 125.134 43.9442 125.433 43.9456C125.833 43.9445 126.226 44.0531 126.571 44.2601C126.916 44.4603 127.204 44.749 127.406 45.0976L126.775 45.451C126.647 45.2049 126.453 45.0011 126.215 44.8634C125.978 44.7257 125.706 44.6599 125.433 44.6736C125.228 44.671 125.025 44.7121 124.836 44.7942C124.648 44.8764 124.478 44.9978 124.338 45.1506C124.071 45.4222 123.911 45.7838 123.888 46.1672C123.865 46.5507 123.981 46.9294 124.213 47.232C124.414 47.5051 124.702 47.6987 125.028 47.7798L126.068 48.0483C126.623 48.1957 127.112 48.5309 127.455 48.9989C127.812 49.4646 128.004 50.0402 127.999 50.6315C128.005 50.9859 127.94 51.3378 127.806 51.665C127.672 51.9922 127.474 52.2876 127.222 52.5326C126.981 52.7829 126.693 52.9809 126.375 53.1145C126.057 53.2481 125.715 53.3146 125.371 53.3101C124.783 53.3157 124.212 53.112 123.755 52.7341C123.291 52.3636 122.962 51.8445 122.823 51.2605L123.506 51.0732Z" fill="#00B4B7"/>
<path d="M49.7037 0H43.737C42.4062 0 41.3274 1.09957 41.3274 2.45595V2.45949C41.3274 3.81587 42.4062 4.91544 43.737 4.91544H49.7037C51.0345 4.91544 52.1133 3.81587 52.1133 2.45949V2.45595C52.1133 1.09957 51.0345 0 49.7037 0Z" fill="#00B4B7"/>
<path d="M66.64 52.2323C66.5568 52.3383 63.8074 55.8155 51.3539 55.7166C38.7028 55.6141 31.8555 49.5007 31.8555 49.5007C31.8555 49.5007 27.3484 44.8574 23.448 37.1043C20.605 31.4503 19.3396 25.4006 18.8577 22.5135C23.6385 26.6869 29.4167 29.4981 35.6068 30.6623C39.6944 34.9028 45.4774 52.1545 51.3539 53.3242C57.8199 54.6105 66.5256 52.2606 66.64 52.2323Z" fill="#00B4B7"/>
<path d="M78.6601 20.9515C69.8826 15.3765 59.7442 12.4292 49.402 12.4458C47.1295 12.4434 44.859 12.5827 42.6032 12.8628C40.9902 12.9673 39.3918 13.2384 37.8326 13.672C35.9821 14.1833 34.1802 14.8622 32.4483 15.7004C28.4294 17.6628 24.7073 20.2023 21.3955 23.2414C21.3955 23.2414 19.3396 21.8809 19.343 19.3543C19.343 15.3682 32.0496 9.64356 32.0496 9.64356C32.0496 9.64356 35.9084 11.3362 39.5245 10.8874C42.6448 10.5023 44.3783 8.89441 46.8537 8.89441C49.558 8.89441 52.1825 11.4599 55.5039 10.5871C58.9259 9.6895 62.3443 8.89441 62.3443 8.89441C62.3443 8.89441 72.9256 12.4282 75.9627 13.301C79.7765 14.4071 79.4471 13.877 79.7418 16.6086C79.87 18.139 79.489 19.6688 78.6601 20.9515Z" fill="#00B4B7"/>
<path d="M20.449 29.5527C20.449 29.5527 12.6967 32.0263 15.6298 38.1856C18.5629 44.3449 25.5732 40.9455 25.5732 40.9455L26.6133 42.6134C26.6133 42.6134 17.4916 46.8539 13.7854 38.7828C10.0791 30.7117 20.026 27.2275 20.026 27.2275L20.449 29.5527Z" fill="#00B4B7"/>
<path d="M12.0553 38.228C12.0553 38.228 2.54183 39.2882 1.16543 45.3556C-1.18174 55.7165 21.6971 71.007 53.9402 71C90.1011 70.9929 94.6083 53.25 94.6083 53.25C94.6083 53.25 86.7901 68.8656 53.961 68.2507C27.7574 67.7595 14.8462 53.25 14.8462 46.6454C14.8462 43.2636 18.861 43.7159 18.861 43.7159C18.861 43.7159 15.5951 44.716 12.9429 40.0868C11.4763 37.5319 12.0553 38.228 12.0553 38.228Z" fill="#00B4B7"/>
<path d="M48.4659 13.6261C42.8325 13.6216 37.2313 14.4927 31.8555 16.2093C24.9908 19.1741 21.2915 23.2026 21.2915 23.2026C21.2915 23.2026 31.5538 30.7436 49.0969 30.6552C64.0467 30.5704 74.6626 23.9411 77.4709 21.9728C68.7505 16.4996 58.7071 13.6095 48.4659 13.6261ZM29.2136 25.6762C29.2136 25.6762 25.3028 22.5453 30.2884 19.3578C35.274 16.1704 43.4804 15.3718 43.4804 15.3718C30.8743 18.8596 29.2136 25.6762 29.2136 25.6762Z" fill="#00B4B7"/>
<path d="M21.7214 19.9798L21.8983 20.2201C25.2553 18.343 28.7959 16.8294 32.4622 15.704C34.1941 14.8657 35.996 14.1869 37.8465 13.6756C32.1796 14.8996 26.7377 17.0271 21.7214 19.9798Z" fill="#00B4B7"/>
<path d="M29.7475 9.10999C25.1044 10.9607 20.8903 13.7768 17.3738 17.379C20.0753 13.7278 23.4216 10.6227 27.2409 8.22302C28.0915 8.48688 28.927 8.78253 29.7475 9.10999Z" fill="#00B4B7"/>
</g>
<defs>
<clipPath id="clip0_26_12">
<rect width="127" height="71" fill="white"/>
</clipPath>
</defs>
</svg>
