<svg width="576" height="316" viewBox="0 0 576 316" fill="none" xmlns="http://www.w3.org/2000/svg">
<g clip-path="url(#clip0_279_2)">
<g clip-path="url(#clip1_279_2)">
<g clip-path="url(#clip2_279_2)">
<path d="M354.679 168.731H345.072V141.732H347.257V166.561H354.679V168.731Z" fill="#1D6980"/>
<path d="M361.959 166.546H372.165V168.731H359.774V152.519H356.472L357.777 150.334H359.758V141.732H372.149V143.918H361.944V150.318H368.422V152.519H361.944L361.959 166.546Z" fill="#1D6980"/>
<path d="M470.929 149.076C466.108 155.681 459.808 161.066 452.532 164.8C445.017 168.727 436.653 170.746 428.175 170.681C418.879 170.773 409.734 168.327 401.726 163.605C393.821 158.983 387.249 152.389 382.653 144.469C377.938 136.424 375.498 127.25 375.592 117.926C375.585 110.998 376.944 104.136 379.591 97.7331C382.238 91.3304 386.121 85.5124 391.018 80.6118C395.866 75.7417 401.64 71.8921 408 69.2902C415.114 66.4089 422.76 65.0784 430.428 65.3875C438.097 65.6967 445.611 67.6383 452.469 71.0828C459.782 74.792 466.073 80.2401 470.788 86.9487L464.231 91.5717C461.579 87.9377 458.362 84.7523 454.702 82.1371C450.922 79.3574 446.723 77.197 442.264 75.7372C437.691 74.2718 432.914 73.5446 428.112 73.583C420.32 73.5398 412.658 75.5695 405.909 79.4639C399.115 83.3245 393.5 88.9613 389.666 95.7701C383.761 105.983 382.155 118.124 385.201 129.521C388.247 140.919 395.696 150.639 405.909 156.545C412.372 160.263 419.662 162.305 427.115 162.487C434.569 162.668 441.949 160.982 448.585 157.583C454.737 154.438 460.067 149.899 464.152 144.327L470.929 149.076Z" fill="#1D6980"/>
<path d="M481.418 157.237V168.684H478.147V157.237H473.917L475.883 154.092H478.147V137.927C478.143 136.085 478.638 134.275 479.578 132.691C480.509 131.087 481.842 129.754 483.446 128.823C485.035 127.887 486.846 127.393 488.69 127.393C490.535 127.393 492.345 127.887 493.934 128.823C495.538 129.754 496.872 131.087 497.803 132.691C498.743 134.275 499.237 136.085 499.233 137.927V168.731H495.963V157.237H481.418ZM481.418 153.966H495.963V137.927C495.985 136.586 495.625 135.266 494.925 134.122C494.253 133.037 493.303 132.152 492.173 131.559C491.093 130.97 489.882 130.661 488.651 130.663C487.671 130.63 486.696 130.81 485.792 131.19C484.888 131.57 484.077 132.141 483.415 132.864C482.107 134.224 481.379 136.04 481.386 137.927L481.418 153.966Z" fill="#1D6980"/>
<path d="M510.13 168.731H506.86V144.374H501.922L503.888 141.041H506.86V128.225H525.446V131.496H510.13V141.025H519.848V144.359H510.13V168.731Z" fill="#1D6980"/>
<path d="M536.359 165.461H551.674V168.731H533.057V144.374H528.104L530.069 141.103H533.057V128.225H551.643V131.496H536.359V141.088H546.076V144.358H536.359V165.461ZM534.267 125.065L548.152 116.542L549.945 119.876L535.054 126.433L534.267 125.065Z" fill="#1D6980"/>
<path d="M323.293 196.155H331.155C333.888 196.127 336.596 196.662 339.112 197.727C343.941 199.778 347.785 203.622 349.836 208.451C351.15 211.536 351.677 214.898 351.372 218.237C351.067 221.576 349.938 224.787 348.087 227.583C346.236 230.378 343.72 232.671 340.765 234.255C337.81 235.839 334.508 236.666 331.155 236.661H326.202V199.425H321.312L323.293 196.155ZM331.155 233.39C333.958 233.393 336.718 232.7 339.187 231.375C341.657 230.05 343.759 228.133 345.306 225.796C346.853 223.459 347.797 220.775 348.052 217.984C348.308 215.193 347.867 212.382 346.77 209.803C345.951 207.786 344.735 205.954 343.196 204.414C341.656 202.875 339.824 201.66 337.807 200.84C335.707 199.932 333.443 199.467 331.155 199.472H329.489V233.437L331.155 233.39Z" fill="#1D6980"/>
<path d="M361.441 233.39H376.756V236.661H358.154V212.272H353.201L355.167 209.002H358.154V196.123H376.741V199.394H361.425V208.986H371.096V212.272H361.378L361.441 233.39Z" fill="#1D6980"/>
<path d="M382.59 227.257C383.025 229.209 384.14 230.942 385.735 232.148C387.26 233.355 389.152 234.004 391.097 233.987C392.244 234.016 393.384 233.806 394.445 233.37C395.506 232.934 396.465 232.282 397.261 231.456C398.349 230.389 399.133 229.052 399.533 227.581C399.933 226.111 399.935 224.561 399.538 223.09C399.141 221.619 398.359 220.28 397.274 219.211C396.189 218.141 394.838 217.38 393.361 217.005L388.644 215.81C386.439 215.256 384.491 213.963 383.125 212.146C381.734 210.347 380.991 208.131 381.018 205.857C381.011 204.5 381.274 203.156 381.79 201.902C382.306 200.647 383.066 199.508 384.025 198.549C384.984 197.59 386.124 196.83 387.378 196.314C388.632 195.798 389.976 195.535 391.333 195.541C393.146 195.536 394.928 196.02 396.49 196.941C398.057 197.831 399.364 199.116 400.28 200.668L397.418 202.24C396.837 201.145 395.956 200.238 394.878 199.625C393.801 199.013 392.571 198.72 391.333 198.781C390.402 198.769 389.48 198.952 388.624 199.317C387.769 199.683 386.999 200.223 386.364 200.903C385.154 202.112 384.429 203.721 384.325 205.427C384.221 207.133 384.744 208.819 385.798 210.165C386.711 211.38 388.016 212.242 389.493 212.602L394.21 213.797C396.726 214.453 398.944 215.945 400.5 218.027C402.122 220.099 402.992 222.661 402.969 225.292C403.002 226.883 402.701 228.463 402.086 229.931C401.471 231.399 400.556 232.722 399.399 233.815C398.305 234.928 396.997 235.808 395.554 236.402C394.111 236.997 392.563 237.293 391.003 237.274C388.336 237.299 385.744 236.393 383.675 234.711C381.568 233.062 380.078 230.753 379.445 228.154L382.59 227.257Z" fill="#1D6980"/>
<path d="M465.536 228.799C463.607 231.44 461.087 233.594 458.177 235.088C455.17 236.662 451.822 237.472 448.428 237.447C444.709 237.484 441.05 236.505 437.845 234.617C434.684 232.766 432.057 230.127 430.219 226.959C428.331 223.743 427.353 220.074 427.389 216.345C427.385 213.575 427.928 210.831 428.986 208.27C430.043 205.71 431.595 203.383 433.553 201.422C435.492 199.475 437.802 197.935 440.346 196.894C443.191 195.743 446.249 195.213 449.316 195.337C452.382 195.462 455.387 196.239 458.13 197.617C461.048 199.085 463.564 201.245 465.457 203.907L462.831 205.747C461.769 204.287 460.479 203.008 459.01 201.957C457.501 200.844 455.823 199.979 454.041 199.394C452.223 198.81 450.323 198.518 448.412 198.529C445.294 198.513 442.227 199.327 439.528 200.888C436.813 202.436 434.569 204.691 433.034 207.413C430.673 211.499 430.031 216.354 431.249 220.912C432.467 225.471 435.445 229.359 439.528 231.723C442.113 233.212 445.03 234.031 448.012 234.105C450.995 234.179 453.948 233.506 456.605 232.148C459.087 230.899 461.242 229.083 462.894 226.849L465.536 228.799Z" fill="#1D6980"/>
<path d="M493.054 236.661H489.783V212.272H475.49V236.645H472.203V212.272H467.25L469.216 208.939H472.187V196.123H475.458V208.939H489.752V196.123H493.022L493.054 236.661Z" fill="#1D6980"/>
<path d="M496.639 236.661V196.155H499.91V236.676L496.639 236.661Z" fill="#1D6980"/>
<path d="M510.822 233.39H526.138V236.661H507.536V212.272H502.583L504.548 209.002H507.52V196.123H526.138V199.394H510.822V208.986H520.477V212.272H510.759L510.822 233.39Z" fill="#1D6980"/>
<path d="M533.057 207.822V236.661H529.786V195.368L546.595 225.04V196.155H549.866V237.431L533.057 207.822Z" fill="#1D6980"/>
<path d="M555.621 227.257C556.056 229.209 557.171 230.942 558.766 232.148C560.291 233.355 562.183 234.004 564.128 233.987C565.275 234.016 566.415 233.806 567.476 233.37C568.537 232.934 569.496 232.282 570.292 231.456C571.38 230.389 572.164 229.052 572.564 227.581C572.964 226.111 572.966 224.561 572.569 223.09C572.172 221.619 571.391 220.28 570.305 219.211C569.22 218.141 567.869 217.38 566.392 217.005L561.675 215.81C559.47 215.256 557.522 213.963 556.156 212.146C554.765 210.347 554.023 208.131 554.049 205.857C554.042 204.5 554.305 203.156 554.821 201.902C555.337 200.647 556.097 199.508 557.056 198.549C558.015 197.59 559.155 196.83 560.409 196.314C561.663 195.798 563.008 195.535 564.364 195.541C566.178 195.536 567.959 196.02 569.521 196.941C571.088 197.831 572.395 199.116 573.311 200.668L570.449 202.24C569.868 201.145 568.987 200.238 567.91 199.625C566.832 199.013 565.602 198.72 564.364 198.781C563.434 198.769 562.511 198.952 561.655 199.317C560.8 199.683 560.03 200.223 559.395 200.903C558.186 202.112 557.46 203.721 557.356 205.427C557.252 207.133 557.776 208.819 558.829 210.165C559.742 211.38 561.048 212.242 562.524 212.602L567.241 213.797C569.757 214.453 571.975 215.945 573.531 218.027C575.153 220.099 576.023 222.661 576 225.292C576.029 226.869 575.731 228.435 575.125 229.891C574.519 231.347 573.617 232.661 572.478 233.752C571.384 234.865 570.076 235.746 568.633 236.341C567.19 236.935 565.642 237.231 564.081 237.211C561.414 237.236 558.823 236.33 556.753 234.648C554.647 233 553.157 230.69 552.523 228.091L555.621 227.257Z" fill="#1D6980"/>
<path d="M220.896 -0.00708008H193.834C187.799 -0.00708008 182.906 4.88575 182.906 10.9214V10.9371C182.906 16.9727 187.799 21.8655 193.834 21.8655H220.896C226.931 21.8655 231.824 16.9727 231.824 10.9371V10.9214C231.824 4.88575 226.931 -0.00708008 220.896 -0.00708008Z" fill="#1D6980"/>
<path d="M297.71 232.415C297.332 232.887 284.863 248.36 228.381 247.919C171.002 247.463 139.947 220.26 139.947 220.26C139.947 220.26 119.505 199.598 101.815 165.099C88.9212 139.94 83.1818 113.02 80.9961 100.173C102.679 118.744 128.886 131.253 156.961 136.434C175.5 155.303 201.728 232.069 228.381 237.274C257.707 242.998 297.191 232.541 297.71 232.415Z" fill="#1D6980"/>
<path d="M352.226 93.2229C312.417 68.4154 266.435 55.3001 219.528 55.3743C209.221 55.3636 198.924 55.9833 188.693 57.2298C181.377 57.6948 174.128 58.9013 167.056 60.8307C158.663 63.1059 150.491 66.1265 142.636 69.8565C124.409 78.5888 107.527 89.889 92.5066 103.412C92.5066 103.412 83.182 97.3584 83.1978 86.1155C83.1978 68.3784 140.828 42.9049 140.828 42.9049C140.828 42.9049 158.329 50.4368 174.729 48.4398C188.881 46.7259 196.744 39.5713 207.971 39.5713C220.236 39.5713 232.139 50.9872 247.203 47.1033C262.723 43.1093 278.227 39.5713 278.227 39.5713C278.227 39.5713 326.218 55.2957 339.993 59.1796C357.29 64.1013 355.796 61.7427 357.132 73.8976C357.714 80.7076 355.986 87.515 352.226 93.2229Z" fill="#1D6980"/>
<path d="M88.214 131.496C88.214 131.496 53.0542 142.503 66.3571 169.911C79.6599 197.318 111.455 182.191 111.455 182.191L116.172 189.613C116.172 189.613 74.8011 208.483 57.9917 172.568C41.1823 136.654 86.2956 121.149 86.2956 121.149L88.214 131.496Z" fill="#1D6980"/>
<path d="M50.145 170.099C50.145 170.099 6.99727 174.817 0.754684 201.815C-9.89073 247.919 93.8745 315.959 240.111 315.927C404.117 315.896 424.558 236.944 424.558 236.944C424.558 236.944 389.1 306.43 240.206 303.694C121.361 301.508 62.8031 236.944 62.8031 207.555C62.8031 192.507 81.012 194.519 81.012 194.519C81.012 194.519 66.1996 198.969 54.1704 178.37C47.519 167.002 50.145 170.099 50.145 170.099Z" fill="#1D6980"/>
<path d="M215.282 60.6261C189.732 60.6061 164.329 64.4822 139.947 72.1206C108.813 85.3133 92.0347 103.239 92.0347 103.239C92.0347 103.239 138.579 136.795 218.144 136.402C285.948 136.024 334.096 106.526 346.833 97.767C307.282 73.4126 261.73 60.552 215.282 60.6261ZM127.965 114.246C127.965 114.246 110.228 100.314 132.839 86.131C155.451 71.9476 192.671 68.3939 192.671 68.3939C135.497 83.9139 127.965 114.246 127.965 114.246Z" fill="#1D6980"/>
<path d="M93.9844 88.8985L94.7863 89.9678C110.012 81.6152 126.07 74.8799 142.699 69.872C150.553 66.142 158.726 63.1214 167.118 60.8462C141.417 66.2926 116.735 75.7598 93.9844 88.8985Z" fill="#1D6980"/>
<path d="M130.386 40.5303C109.328 48.7656 90.2151 61.2967 74.2661 77.3254C86.5186 61.0788 101.696 47.2616 119.018 36.5835C122.875 37.7576 126.665 39.0732 130.386 40.5303Z" fill="#1D6980"/>
</g>
</g>
</g>
<defs>
<clipPath id="clip0_279_2">
<rect width="576" height="315.92" fill="white"/>
</clipPath>
<clipPath id="clip1_279_2">
<rect width="576" height="315.92" fill="white"/>
</clipPath>
<clipPath id="clip2_279_2">
<rect width="576" height="315.934" fill="white" transform="translate(0 -0.00708008)"/>
</clipPath>
</defs>
</svg>
