<svg width="127" height="71" viewBox="0 0 127 71" fill="none" xmlns="http://www.w3.org/2000/svg">
<g clip-path="url(#clip0_14_7424)">
<path d="M78.2018 37.9206H76.0835V31.8532H76.5654V37.433H78.2018V37.9206Z" fill="white"/>
<path d="M79.8072 37.4294H82.0572V37.9206H79.3252V34.2773H78.5972L78.8849 33.7861H79.3218V31.8532H82.0538V32.3444H79.8037V33.7826H81.2321V34.2773H79.8037L79.8072 37.4294Z" fill="white"/>
<path d="M103.834 33.5034C102.771 34.9879 101.381 36.1981 99.7772 37.0372C98.1203 37.9196 96.2761 38.3735 94.4068 38.3588C92.3572 38.3796 90.3409 37.8297 88.5752 36.7686C86.8322 35.7298 85.3832 34.2481 84.3698 32.4681C83.3303 30.6602 82.7923 28.5984 82.8131 26.5031C82.8115 24.9461 83.111 23.4041 83.6946 21.9652C84.2782 20.5263 85.1344 19.2188 86.2142 18.1175C87.2831 17.0231 88.5563 16.1579 89.9586 15.5732C91.527 14.9257 93.2128 14.6267 94.9036 14.6962C96.5944 14.7656 98.2511 15.202 99.7633 15.9761C101.376 16.8096 102.763 18.034 103.802 19.5416L102.357 20.5805C101.772 19.7639 101.063 19.048 100.256 18.4603C99.4221 17.8356 98.4964 17.3501 97.5132 17.0221C96.5049 16.6927 95.4516 16.5293 94.3929 16.5379C92.675 16.5282 90.9854 16.9844 89.4975 17.8596C87.9995 18.7271 86.7615 19.9939 85.9161 21.524C84.6141 23.8193 84.26 26.5477 84.9317 29.109C85.6033 31.6703 87.2457 33.8548 89.4975 35.182C90.9224 36.0175 92.5297 36.4766 94.1731 36.5173C95.8165 36.558 97.4439 36.1792 98.9069 35.4152C100.263 34.7085 101.439 33.6884 102.339 32.4363L103.834 33.5034Z" fill="white"/>
<path d="M106.146 35.3374V37.91H105.425V35.3374H104.492L104.926 34.6307H105.425V30.998C105.424 30.5839 105.533 30.1774 105.74 29.8213C105.946 29.4608 106.24 29.1612 106.593 28.952C106.944 28.7416 107.343 28.6306 107.749 28.6306C108.156 28.6306 108.555 28.7416 108.906 28.952C109.259 29.1612 109.553 29.4608 109.759 29.8213C109.966 30.1774 110.075 30.5839 110.074 30.998V37.9206H109.353V35.3374H106.146ZM106.146 34.6024H109.353V30.998C109.358 30.6966 109.279 30.3999 109.124 30.1428C108.976 29.899 108.766 29.7001 108.517 29.5668C108.279 29.4344 108.012 29.3652 107.741 29.3654C107.525 29.3581 107.31 29.3985 107.11 29.4839C106.911 29.5693 106.732 29.6976 106.586 29.8601C106.298 30.1658 106.137 30.5739 106.139 30.998L106.146 34.6024Z" fill="white"/>
<path d="M112.477 37.9206H111.756V32.4468H110.667L111.1 31.6977H111.756V28.8177H115.854V29.5527H112.477V31.6942H114.619V32.4433H112.477V37.9206Z" fill="white"/>
<path d="M118.26 37.1856H121.636V37.9206H117.532V32.4469H116.439L116.873 31.7118H117.532V28.8177H121.63V29.5527H118.26V31.7083H120.402V32.4433H118.26V37.1856ZM117.799 28.1074L120.86 26.1921L121.255 26.9413L117.972 28.4148L117.799 28.1074Z" fill="white"/>
<path d="M71.2818 44.0835H73.0153C73.6177 44.0772 74.2149 44.1975 74.7696 44.4368C75.8343 44.8977 76.6819 45.7617 77.1341 46.8469C77.4237 47.5401 77.5401 48.2958 77.4728 49.0461C77.4055 49.7965 77.1566 50.5181 76.7485 51.1463C76.3403 51.7746 75.7856 52.2898 75.1341 52.6458C74.4826 53.0018 73.7546 53.1876 73.0153 53.1864H71.9232V44.8185H70.845L71.2818 44.0835ZM73.0153 52.4514C73.6333 52.452 74.2417 52.2964 74.7862 51.9986C75.3307 51.7008 75.7942 51.27 76.1353 50.7448C76.4764 50.2196 76.6845 49.6164 76.7408 48.9892C76.7971 48.362 76.7 47.7303 76.4581 47.1508C76.2774 46.6975 76.0095 46.2857 75.6701 45.9397C75.3306 45.5937 74.9266 45.3206 74.4819 45.1365C74.0189 44.9325 73.5197 44.8278 73.0153 44.8291H72.6478V52.462L73.0153 52.4514Z" fill="white"/>
<path d="M79.6927 52.4514H83.0696V53.1864H78.9681V47.7056H77.876L78.3094 46.9705H78.9681V44.0764H83.0661V44.8114H79.6892V46.967H81.8214V47.7056H79.6788L79.6927 52.4514Z" fill="white"/>
<path d="M84.3558 51.0732C84.4517 51.5118 84.6974 51.9013 85.0492 52.1722C85.3854 52.4435 85.8026 52.5894 86.2314 52.5857C86.4843 52.5921 86.7357 52.5448 86.9696 52.4469C87.2036 52.3489 87.415 52.2024 87.5905 52.0167C87.8303 51.7769 88.0032 51.4764 88.0914 51.146C88.1797 50.8156 88.18 50.4672 88.0925 50.1366C88.005 49.806 87.8327 49.5051 87.5934 49.2648C87.354 49.0245 87.0563 48.8535 86.7307 48.7692L85.6906 48.5007C85.2045 48.3761 84.7749 48.0855 84.4736 47.6773C84.167 47.2729 84.0033 46.7748 84.0091 46.2638C84.0077 45.959 84.0656 45.6569 84.1794 45.375C84.2932 45.0931 84.4607 44.837 84.6721 44.6215C84.8836 44.406 85.1349 44.2353 85.4114 44.1193C85.688 44.0033 85.9844 43.9443 86.2834 43.9457C86.6833 43.9445 87.0761 44.0531 87.4206 44.2602C87.7661 44.4601 88.0542 44.7489 88.2561 45.0977L87.6251 45.451C87.497 45.2049 87.3028 45.0011 87.0652 44.8634C86.8276 44.7258 86.5564 44.6599 86.2834 44.6736C86.0783 44.671 85.8749 44.7121 85.6862 44.7942C85.4976 44.8764 85.3278 44.9978 85.1878 45.1507C84.9212 45.4222 84.7613 45.7838 84.7383 46.1672C84.7153 46.5507 84.8308 46.9295 85.063 47.232C85.2643 47.5051 85.5522 47.6987 85.8778 47.7798L86.9179 48.0483C87.4725 48.1957 87.9615 48.5309 88.3047 48.9989C88.6622 49.4646 88.8541 50.0402 88.849 50.6315C88.8562 50.9891 88.79 51.3442 88.6544 51.6741C88.5189 52.0039 88.3171 52.3012 88.062 52.5468C87.8208 52.7969 87.5324 52.9947 87.2142 53.1283C86.8961 53.2619 86.5547 53.3286 86.2106 53.3242C85.6227 53.3299 85.0513 53.1262 84.595 52.7482C84.1305 52.3778 83.802 51.8587 83.6624 51.2746L84.3558 51.0732Z" fill="white"/>
<path d="M102.644 51.4195C102.219 52.0132 101.663 52.4972 101.022 52.833C100.359 53.1867 99.6205 53.3687 98.8722 53.3631C98.0522 53.3714 97.2454 53.1515 96.5389 52.727C95.842 52.3111 95.2626 51.7182 94.8574 51.0061C94.4412 50.2833 94.2255 49.4588 94.2334 48.6208C94.2327 47.9982 94.3523 47.3816 94.5855 46.8062C94.8187 46.2308 95.1609 45.7079 95.5924 45.2673C96.0201 44.8296 96.5293 44.4836 97.0902 44.2496C97.7176 43.991 98.3918 43.8718 99.068 43.8998C99.7441 43.9278 100.407 44.1025 101.011 44.4121C101.655 44.7421 102.209 45.2273 102.627 45.8256L102.048 46.2391C101.814 45.9111 101.529 45.6235 101.206 45.3874C100.873 45.1374 100.503 44.943 100.11 44.8114C99.7089 44.6802 99.29 44.6146 98.8688 44.6171C98.1812 44.6134 97.5051 44.7963 96.9099 45.1471C96.3114 45.4951 95.8166 46.0019 95.478 46.6136C94.9576 47.5317 94.816 48.6229 95.0845 49.6473C95.353 50.6717 96.0096 51.5456 96.9099 52.0768C97.4799 52.4114 98.123 52.5953 98.7806 52.612C99.4382 52.6287 100.089 52.4775 100.675 52.1722C101.222 51.8915 101.698 51.4836 102.062 50.9813L102.644 51.4195Z" fill="white"/>
<path d="M108.712 53.1864H107.99V47.7056H104.839V53.1829H104.114V47.7056H103.022L103.456 46.9564H104.111V44.0764H104.832V46.9564H107.984V44.0764H108.705L108.712 53.1864Z" fill="white"/>
<path d="M109.502 53.1864V44.0835H110.223V53.1899L109.502 53.1864Z" fill="white"/>
<path d="M112.629 52.4514H116.006V53.1864H111.905V47.7056H110.812L111.246 46.9705H111.901V44.0764H116.006V44.8114H112.629V46.967H114.758V47.7056H112.615L112.629 52.4514Z" fill="white"/>
<path d="M117.532 46.7055V53.1864H116.811V43.9068L120.517 50.575V44.0835H121.238V53.3596L117.532 46.7055Z" fill="white"/>
<path d="M122.507 51.0732C122.603 51.5118 122.848 51.9013 123.2 52.1722C123.536 52.4435 123.954 52.5894 124.382 52.5857C124.635 52.5921 124.887 52.5448 125.121 52.4469C125.355 52.3489 125.566 52.2024 125.741 52.0167C125.981 51.7769 126.154 51.4764 126.242 51.146C126.331 50.8156 126.331 50.4672 126.243 50.1366C126.156 49.806 125.984 49.5051 125.744 49.2648C125.505 49.0245 125.207 48.8535 124.882 48.7692L123.842 48.5007C123.355 48.3761 122.926 48.0855 122.625 47.6773C122.318 47.2729 122.154 46.7748 122.16 46.2638C122.159 45.959 122.217 45.6569 122.33 45.375C122.444 45.0931 122.612 44.837 122.823 44.6215C123.035 44.406 123.286 44.2353 123.562 44.1193C123.839 44.0033 124.135 43.9443 124.434 43.9457C124.834 43.9445 125.227 44.0531 125.572 44.2602C125.917 44.4603 126.205 44.749 126.407 45.0977L125.776 45.451C125.648 45.2049 125.454 45.0011 125.216 44.8634C124.979 44.7258 124.707 44.6599 124.434 44.6736C124.229 44.671 124.026 44.7121 123.837 44.7942C123.649 44.8764 123.479 44.9978 123.339 45.1507C123.072 45.4222 122.912 45.7838 122.889 46.1672C122.866 46.5507 122.982 46.9295 123.214 47.232C123.415 47.5051 123.703 47.6987 124.029 47.7798L125.069 48.0483C125.623 48.1957 126.113 48.5309 126.456 48.9989C126.813 49.4646 127.005 50.0402 127 50.6315C127.006 50.9859 126.941 51.3378 126.807 51.665C126.673 51.9922 126.475 52.2876 126.223 52.5327C125.982 52.7829 125.694 52.9809 125.376 53.1145C125.058 53.2481 124.716 53.3146 124.372 53.3101C123.784 53.3157 123.213 53.112 122.756 52.7341C122.292 52.3636 121.963 51.8446 121.824 51.2605L122.507 51.0732Z" fill="white"/>
<path d="M48.7047 0H42.7379C41.4072 0 40.3284 1.09957 40.3284 2.45595V2.45949C40.3284 3.81587 41.4072 4.91544 42.7379 4.91544H48.7047C50.0354 4.91544 51.1142 3.81587 51.1142 2.45949V2.45595C51.1142 1.09957 50.0354 0 48.7047 0Z" fill="white"/>
<path d="M65.641 52.2323C65.5578 52.3383 62.8084 55.8155 50.3549 55.7166C37.7038 55.6141 30.8565 49.5007 30.8565 49.5007C30.8565 49.5007 26.3493 44.8574 22.449 37.1043C19.606 31.4503 18.3406 25.4006 17.8586 22.5135C22.6395 26.6869 28.4177 29.4981 34.6078 30.6623C38.6954 34.9028 44.4783 52.1545 50.3549 53.3242C56.8209 54.6105 65.5266 52.2606 65.641 52.2323Z" fill="white"/>
<path d="M77.6611 20.9516C68.8836 15.3766 58.7452 12.4292 48.403 12.4459C46.1305 12.4435 43.86 12.5827 41.6042 12.8628C39.9912 12.9673 38.3928 13.2385 36.8336 13.6721C34.9831 14.1834 33.1812 14.8622 31.4493 15.7004C27.4304 17.6629 23.7083 20.2024 20.3965 23.2414C20.3965 23.2414 18.3405 21.881 18.344 19.3543C18.344 15.3683 31.0506 9.64359 31.0506 9.64359C31.0506 9.64359 34.9094 11.3363 38.5255 10.8875C41.6458 10.5023 43.3793 8.89444 45.8547 8.89444C48.559 8.89444 51.1835 11.4599 54.5049 10.5871C57.9268 9.68953 61.3453 8.89444 61.3453 8.89444C61.3453 8.89444 71.9266 12.4282 74.9637 13.301C78.7774 14.4071 78.4481 13.877 78.7428 16.6086C78.871 18.139 78.49 19.6688 77.6611 20.9516Z" fill="white"/>
<path d="M19.4499 29.5527C19.4499 29.5527 11.6977 32.0263 14.6308 38.1856C17.5639 44.345 24.5742 40.9455 24.5742 40.9455L25.6143 42.6134C25.6143 42.6134 16.4926 46.8539 12.7863 38.7829C9.08011 30.7118 19.027 27.2275 19.027 27.2275L19.4499 29.5527Z" fill="white"/>
<path d="M11.0563 38.2281C11.0563 38.2281 1.54281 39.2882 0.166405 45.3556C-2.18076 55.7166 20.698 71.0071 52.9412 71C89.1021 70.9929 93.6092 53.25 93.6092 53.25C93.6092 53.25 85.7911 68.8656 52.962 68.2508C26.7584 67.7596 13.8472 53.25 13.8472 46.6454C13.8472 43.2636 17.862 43.716 17.862 43.716C17.862 43.716 14.5961 44.716 11.9438 40.0868C10.4773 37.5319 11.0563 38.2281 11.0563 38.2281Z" fill="white"/>
<path d="M47.4669 13.6261C41.8335 13.6216 36.2323 14.4927 30.8565 16.2093C23.9918 19.1741 20.2925 23.2026 20.2925 23.2026C20.2925 23.2026 30.5548 30.7436 48.0979 30.6552C63.0476 30.5704 73.6636 23.9411 76.4719 21.9728C67.7514 16.4996 57.708 13.6095 47.4669 13.6261ZM28.2146 25.6762C28.2146 25.6762 24.3038 22.5453 29.2894 19.3579C34.2749 16.1704 42.4813 15.3718 42.4813 15.3718C29.8753 18.8596 28.2146 25.6762 28.2146 25.6762Z" fill="white"/>
<path d="M20.7224 19.9798L20.8992 20.2201C24.2563 18.343 27.7969 16.8294 31.4632 15.704C33.1951 14.8657 34.997 14.1869 36.8475 13.6756C31.1806 14.8996 25.7387 17.0271 20.7224 19.9798Z" fill="white"/>
<path d="M28.7485 9.10999C24.1054 10.9607 19.8913 13.7768 16.3748 17.379C19.0763 13.7278 22.4226 10.6227 26.2419 8.22302C27.0924 8.48688 27.928 8.78253 28.7485 9.10999Z" fill="white"/>
</g>
<defs>
<clipPath id="clip0_14_7424">
<rect width="127" height="71" fill="white"/>
</clipPath>
</defs>
</svg>
