<svg xmlns="http://www.w3.org/2000/svg" viewBox="0 0 366.31 200.92"><defs><style>.cls-1{fill:#fff;}</style></defs><title>logo-white</title><g id="Layer_2" data-name="Layer 2"><g id="Layer_1-2" data-name="Layer 1"><path class="cls-1" d="M225.56,107.31h-6.11V90.14h1.39v15.79h4.72Z"/><path class="cls-1" d="M230.19,105.92h6.49v1.39H228.8V97h-2.1l.83-1.39h1.26V90.14h7.88v1.39h-6.49v4.07h4.12V97h-4.12Z"/><path class="cls-1" d="M299.49,94.81a33.32,33.32,0,0,1-11.7,10,32.9,32.9,0,0,1-15.49,3.74,32.48,32.48,0,0,1-16.82-4.5,33.68,33.68,0,0,1-12.13-12.17A32.73,32.73,0,0,1,238.86,75a33.52,33.52,0,0,1,9.81-23.73,32.72,32.72,0,0,1,10.8-7.2,34.31,34.31,0,0,1,28.28,1.14A31.85,31.85,0,0,1,299.4,55.3l-4.17,2.94a26.76,26.76,0,0,0-6.06-6,28.12,28.12,0,0,0-7.91-4.07,28.74,28.74,0,0,0-9-1.37,27.94,27.94,0,0,0-14.12,3.74,27.38,27.38,0,0,0-10.33,10.37,28.29,28.29,0,0,0,10.33,38.65,28.43,28.43,0,0,0,27.14.66,28.18,28.18,0,0,0,9.9-8.43Z"/><path class="cls-1" d="M306.16,100v7.28h-2.08V100h-2.69L302.64,98h1.44V87.72a6.5,6.5,0,0,1,.91-3.33,6.78,6.78,0,0,1,2.46-2.46,6.57,6.57,0,0,1,6.67,0,6.78,6.78,0,0,1,2.46,2.46,6.5,6.5,0,0,1,.91,3.33v19.59h-2.08V100Zm0-2.08h9.25V87.72a4.49,4.49,0,0,0-.66-2.42A4.54,4.54,0,0,0,313,83.67a4.67,4.67,0,0,0-2.24-.57,4.32,4.32,0,0,0-3.33,1.4,4.62,4.62,0,0,0-1.29,3.22Z"/><path class="cls-1" d="M324.42,107.31h-2.08V91.82H319.2l1.25-2.12h1.89V81.55h11.82v2.08h-9.74v6.06h6.18v2.12h-6.18Z"/><path class="cls-1" d="M341.1,105.23h9.74v2.08H339V91.82h-3.15l1.25-2.08H339V81.55h11.82v2.08H341.1v6.1h6.18v2.08H341.1Zm-1.33-25.69,8.83-5.42,1.14,2.12-9.47,4.17Z"/><path class="cls-1" d="M205.6,124.75h5a12.65,12.65,0,0,1,5.06,1,12.88,12.88,0,0,1,6.82,6.82,12.89,12.89,0,0,1-11.88,17.94h-3.15V126.83h-3.11Zm5,23.68a10.78,10.78,0,0,0,9.93-15,10.36,10.36,0,0,0-5.7-5.7,10.59,10.59,0,0,0-4.23-.87h-1.06v21.6Z"/><path class="cls-1" d="M229.86,148.43h9.74v2.08H227.77V135h-3.15l1.25-2.08h1.9v-8.19h11.82v2.08h-9.74v6.1H236V135h-6.18Z"/><path class="cls-1" d="M243.31,144.53a5.36,5.36,0,0,0,2,3.11,5.42,5.42,0,0,0,3.41,1.17,5.26,5.26,0,0,0,3.92-1.61,5.46,5.46,0,0,0-2.48-9.19l-3-.76a6.32,6.32,0,0,1-3.51-2.33,6.42,6.42,0,0,1-1.34-4,6.53,6.53,0,0,1,6.56-6.56,6.42,6.42,0,0,1,3.28.89,6.56,6.56,0,0,1,2.41,2.37l-1.82,1a4.15,4.15,0,0,0-3.87-2.2,4.25,4.25,0,0,0-3.16,1.35,4.45,4.45,0,0,0-.36,5.89,4.18,4.18,0,0,0,2.35,1.55l3,.76a7.29,7.29,0,0,1,4,2.69,7.39,7.39,0,0,1,1.57,4.62A7.25,7.25,0,0,1,254,148.7a7.36,7.36,0,0,1-5.34,2.2,7.28,7.28,0,0,1-4.66-1.63,7.57,7.57,0,0,1-2.69-4.17Z"/><path class="cls-1" d="M296.06,145.51a13.34,13.34,0,0,1-4.68,4,13.16,13.16,0,0,1-6.2,1.5,13,13,0,0,1-6.73-1.8,13.48,13.48,0,0,1-4.85-4.87,13.09,13.09,0,0,1-1.8-6.75,13.41,13.41,0,0,1,3.92-9.49,13.1,13.1,0,0,1,4.32-2.88,13.73,13.73,0,0,1,11.31.46,12.75,12.75,0,0,1,4.66,4l-1.67,1.17a10.73,10.73,0,0,0-2.43-2.41,11.24,11.24,0,0,0-3.16-1.63,11.49,11.49,0,0,0-3.58-.55,11.17,11.17,0,0,0-5.65,1.5,11,11,0,0,0-4.13,4.15,11.32,11.32,0,0,0,4.13,15.46,11.38,11.38,0,0,0,10.86.27,11.28,11.28,0,0,0,4-3.37Z"/><path class="cls-1" d="M313.56,150.51h-2.08V135h-9.09v15.5H300.3V135h-3.15l1.25-2.12h1.89v-8.15h2.08v8.15h9.09v-8.15h2.08Z"/><path class="cls-1" d="M315.84,150.51V124.75h2.08v25.77Z"/><path class="cls-1" d="M324.86,148.43h9.74v2.08H322.77V135h-3.15l1.25-2.08h1.89v-8.19H334.6v2.08h-9.74v6.1H331V135h-6.18Z"/><path class="cls-1" d="M339,132.17v18.34h-2.08V124.25l10.69,18.87V124.75h2.08V151Z"/><path class="cls-1" d="M353.35,144.53a5.36,5.36,0,0,0,2,3.11,5.42,5.42,0,0,0,3.41,1.17,5.26,5.26,0,0,0,3.92-1.61,5.46,5.46,0,0,0-2.48-9.19l-3-.76a6.32,6.32,0,0,1-3.51-2.33,6.42,6.42,0,0,1-1.34-4,6.53,6.53,0,0,1,6.56-6.56,6.42,6.42,0,0,1,3.28.89,6.57,6.57,0,0,1,2.41,2.37l-1.82,1a4.15,4.15,0,0,0-3.87-2.2,4.25,4.25,0,0,0-3.16,1.35,4.45,4.45,0,0,0-.36,5.89,4.18,4.18,0,0,0,2.35,1.55l3,.76a7.29,7.29,0,0,1,4,2.69,7.39,7.39,0,0,1,1.57,4.62,7.26,7.26,0,0,1-2.24,5.38,7.35,7.35,0,0,1-5.34,2.2,7.28,7.28,0,0,1-4.66-1.63,7.57,7.57,0,0,1-2.69-4.17Z"/><rect class="cls-1" x="116.32" width="31.11" height="13.91" rx="6.95" ry="6.95"/><path class="cls-1" d="M189.33,147.81c-.24.3-8.17,10.14-44.09,9.86C108.75,157.38,89,140.08,89,140.08S76,126.94,64.75,105C56.55,89,52.9,71.88,51.51,63.71A103,103,0,0,0,99.82,86.77c11.79,12,28.47,60.82,45.42,64.13C163.89,154.54,189,147.89,189.33,147.81Z"/><path class="cls-1" d="M224,59.29a159.09,159.09,0,0,0-84.39-24.07A160.77,160.77,0,0,0,120,36.4a68.88,68.88,0,0,0-13.76,2.29,92.83,92.83,0,0,0-15.53,5.74A134.49,134.49,0,0,0,58.83,65.77s-5.93-3.85-5.92-11c0-11.28,36.65-27.48,36.65-27.48s11.13,4.79,21.56,3.52c9-1.09,14-5.64,21.14-5.64,7.8,0,15.37,7.26,24.95,4.79,9.87-2.54,19.73-4.79,19.73-4.79s30.52,10,39.28,12.47c11,3.13,10.05,1.63,10.9,9.36A19.35,19.35,0,0,1,224,59.29Z"/><path class="cls-1" d="M56.1,83.63s-22.36,7-13.9,24.43,28.68,7.81,28.68,7.81l3,4.72s-26.31,12-37-10.84,18-32.7,18-32.7Z"/><path class="cls-1" d="M31.89,108.18s-27.44,3-31.41,20.17c-6.77,29.32,59.22,72.59,152.22,72.57C257,200.9,270,150.69,270,150.69s-22.55,44.19-117.24,42.45C77.18,191.75,39.94,150.69,39.94,132c0-9.57,11.58-8.29,11.58-8.29s-9.42,2.83-17.07-10.27C30.22,106.21,31.89,108.18,31.89,108.18Z"/><path class="cls-1" d="M136.91,38.56A159.84,159.84,0,0,0,89,45.87C69.2,54.26,58.53,65.66,58.53,65.66S88.13,87,138.73,86.75c43.12-.24,73.74-19,81.84-24.57A159.07,159.07,0,0,0,136.91,38.56ZM81.38,72.66S70.1,63.8,84.48,54.78,122.53,43.5,122.53,43.5C86.17,53.37,81.38,72.66,81.38,72.66Z"/><path class="cls-1" d="M59.77,56.54l.51.68A158.21,158.21,0,0,1,90.75,44.44a92.83,92.83,0,0,1,15.53-5.74A158.85,158.85,0,0,0,59.77,56.54Z"/><path class="cls-1" d="M82.92,25.78a103.55,103.55,0,0,0-35.69,23.4A104,104,0,0,1,75.69,23.27Q79.37,24.39,82.92,25.78Z"/></g></g></svg>